<?xml version="1.0" encoding="UTF-8"?>
<svg width="391px" height="483px" viewBox="0 0 391 483" version="1.1" xmlns="http://www.w3.org/2000/svg" xmlns:xlink="http://www.w3.org/1999/xlink">
    <!-- Generator: Sketch 51.2 (57519) - http://www.bohemiancoding.com/sketch -->
    <title>delete-button-svgrepo-com</title>
    <desc>Created with Sketch.</desc>
    <defs></defs>
    <g id="Page-1" stroke="none" stroke-width="1" fill="none" fill-rule="evenodd">
        <g id="delete-button-svgrepo-com" fill="#D81B60" fill-rule="nonzero">
            <path d="M335.163,57.799 L260.069,57.799 C256.323,25.316 228.686,0 195.214,0 C161.743,0 134.11,25.315 130.364,57.799 L55.266,57.799 C24.876,57.799 0.155,82.527 0.155,112.916 L0.155,115.744 C0.155,138.967 14.615,158.844 34.985,166.943 L34.985,427.312 C34.985,457.702 59.709,482.429 90.097,482.429 L300.333,482.429 C330.722,482.429 355.444,457.7 355.444,427.312 L355.444,166.944 C375.813,158.844 390.274,138.967 390.274,115.745 L390.274,112.917 C390.274,82.527 365.551,57.799 335.163,57.799 Z M195.214,26.139 C214.251,26.139 230.141,39.784 233.657,57.799 L156.778,57.799 C160.293,39.783 176.184,26.139 195.214,26.139 Z M329.305,427.312 C329.305,443.29 316.305,456.291 300.332,456.291 L90.096,456.291 C74.123,456.291 61.123,443.289 61.123,427.312 L61.123,170.861 L329.305,170.861 L329.305,427.312 Z M364.135,115.744 C364.135,131.722 351.135,144.723 335.162,144.723 L55.266,144.723 C39.293,144.723 26.293,131.722 26.293,115.744 L26.293,112.916 C26.293,96.938 39.293,83.937 55.266,83.937 L335.163,83.937 C351.136,83.937 364.136,96.938 364.136,112.916 L364.136,115.744 L364.135,115.744 Z" id="Shape"></path>
            <path d="M125.144,422.863 C132.362,422.863 138.213,417.01 138.213,409.795 L138.213,262.641 C138.213,255.425 132.361,249.571 125.144,249.571 C117.927,249.571 112.075,255.425 112.075,262.641 L112.075,409.795 C112.074,417.012 117.926,422.863 125.144,422.863 Z" id="Shape"></path>
            <path d="M195.214,422.863 C202.432,422.863 208.284,417.01 208.284,409.795 L208.284,262.641 C208.284,255.425 202.43,249.571 195.214,249.571 C187.997,249.571 182.145,255.425 182.145,262.641 L182.145,409.795 C182.145,417.012 187.996,422.863 195.214,422.863 Z" id="Shape"></path>
            <path d="M265.284,422.863 C272.501,422.863 278.352,417.01 278.352,409.795 L278.352,262.641 C278.352,255.425 272.5,249.571 265.284,249.571 C258.065,249.571 252.214,255.425 252.214,262.641 L252.214,409.795 C252.213,417.012 258.067,422.863 265.284,422.863 Z" id="Shape"></path>
        </g>
    </g>
</svg>